<svg version="1.1" viewBox="0 0 32 32" xmlns="http://www.w3.org/2000/svg"><style>@media (prefers-color-scheme: dark) { g { filter: invert(); } }</style><g><rect x="5.8423" y="5.8423" width="24.025" height="24.025" stroke="#fff" stroke-width=".0080925"/><rect x="2.5173" y="2.5174" width="24.025" height="24.025" fill="#fff" stroke="#000" stroke-width=".77686"/><circle cx="14.527" cy="14.53" r="9.6107" fill="none" stroke="#000" stroke-dasharray="2.76342, 0.789551" stroke-width=".78955" style="paint-order:normal"/><circle cx="14.53" cy="14.53" r="7.9028" fill="none" stroke="#000" stroke-width=".78955" style="paint-order:normal"/><path d="m17.469 18.506h-5.8435l0.0551-0.2343q1.137-0.24118 1.5091-0.47547 0.55816-0.35143 0.9096-1.0405 0.35832-0.68908 0.35832-1.454 0-0.11025-0.0069-0.31698-0.42034 0.85447-1.0267 1.2473-0.59951 0.39278-1.2266 0.39278-0.79934 0-1.3575-0.55816t-0.55816-1.3713q0-0.79934 0.50992-1.3437 0.50992-0.55127 1.1577-0.55127 0.41346 0 1.1232 0.35143-0.28942-0.48236-0.379-0.72355-0.08269-0.24807-0.08269-0.5306 0-0.78556 0.54439-1.3299 0.54439-0.54438 1.3575-0.54438 0.81313 0 1.3644 0.54438 0.55816 0.54439 0.55816 1.2955 0 0.61329-0.47548 1.2886 0.57883-0.27563 0.69597-0.31009 0.18605-0.0551 0.42034-0.0551 0.68909 0 1.1921 0.54439 0.50992 0.53749 0.50992 1.3368 0 0.82691-0.55816 1.392-0.55127 0.55816-1.3299 0.55816-0.43413 0-0.89582-0.20673-0.4548-0.21362-0.79246-0.56505-0.24118-0.25496-0.59951-0.86136 0.02759 1.0957 0.33076 1.7365 0.31009 0.63396 0.94406 1.0543 0.42724 0.28253 1.5367 0.49614z"/></g></svg>
